<svg xmlns="http://www.w3.org/2000/svg" viewBox="0 0 750 1050" role="img" aria-labelledby="title desc">
  <title id="title">Argus Panoptes</title>
  <desc id="desc">Concept art hero card for Argus Panoptes with gold hero framing.</desc>
  <defs>
    <linearGradient id="bg-sauron" x1="0" x2="0" y1="0" y2="1">
      <stop offset="0%" stop-color="#f6f0e4"/>
      <stop offset="100%" stop-color="#ffffff"/>
    </linearGradient>
  </defs>
  <rect x="16" y="16" width="718" height="1018" rx="40" fill="url(#bg-sauron)" stroke="#c9a84c" stroke-width="16"/>
  <rect x="42" y="42" width="666" height="966" rx="28" fill="none" stroke="#8b6d21" stroke-width="5"/>

  <g transform="translate(112,112)">
    
    <g transform="translate(0,0) scale(0.62)">
      <path d="M0 -58 C18 -48 30 -28 30 -6 C30 22 10 42 0 58 C-10 42 -30 22 -30 -6 C-30 -28 -18 -48 0 -58 Z" fill="#c9a84c"/>
      <circle cx="0" cy="-6" r="12" fill="#241d12"/>
      <path d="M-48 -4 C-44 18 -32 34 -18 46" fill="none" stroke="#c9a84c" stroke-width="10" stroke-linecap="round"/>
      <path d="M48 -4 C44 18 32 34 18 46" fill="none" stroke="#c9a84c" stroke-width="10" stroke-linecap="round"/>
      <path d="M-54 6 C-48 18 -42 28 -32 34" fill="none" stroke="#c9a84c" stroke-width="8" stroke-linecap="round"/>
      <path d="M54 6 C48 18 42 28 32 34" fill="none" stroke="#c9a84c" stroke-width="8" stroke-linecap="round"/>
    </g>
    
  </g>

  <g transform="translate(375,220) scale(0.76)"><circle cx="0" cy="-94" r="84" fill="none" stroke="#c9a84c" stroke-width="10" opacity="0.2"/><circle cx="-50" cy="-94" r="10" fill="#c9a84c" opacity="0.14"/><circle cx="50" cy="-94" r="10" fill="#c9a84c" opacity="0.14"/></g>
  
        <g transform="translate(375,184) scale(0.7)">
          <circle cx="0" cy="0" r="56" fill="none" stroke="#c9a84c" stroke-width="10" opacity="0.3"/>
          <circle cx="-24" cy="-2" r="7" fill="#c9a84c" opacity="0.34"/>
          <circle cx="0" cy="-22" r="7" fill="#c9a84c" opacity="0.34"/>
          <circle cx="24" cy="-2" r="7" fill="#c9a84c" opacity="0.34"/>
          <circle cx="-16" cy="20" r="7" fill="#c9a84c" opacity="0.34"/>
          <circle cx="16" cy="20" r="7" fill="#c9a84c" opacity="0.34"/>
        </g>
        
  <g transform="translate(375,320) scale(0.68)">
          <circle cx="0" cy="-118" r="52" fill="none" stroke="#c9a84c" stroke-width="8" opacity="0.62"/>
          <circle cx="-28" cy="-116" r="6" fill="#c9a84c" opacity="0.72"/>
          <circle cx="0" cy="-132" r="6" fill="#c9a84c" opacity="0.72"/>
          <circle cx="28" cy="-116" r="6" fill="#c9a84c" opacity="0.72"/>
          <circle cx="-18" cy="-94" r="6" fill="#c9a84c" opacity="0.72"/>
          <circle cx="18" cy="-94" r="6" fill="#c9a84c" opacity="0.72"/>
        </g>
  
        <g transform="translate(375,248) scale(0.62)">
          <path d="M0 -126 L30 -92 L46 -6 L58 108 L-58 108 L-46 -6 L-30 -92 Z" fill="#241d12"/>
          <circle cx="0" cy="-116" r="44" fill="none" stroke="#c9a84c" stroke-width="10" opacity="0.72"/>
          <circle cx="-22" cy="-116" r="8" fill="#c9a84c" opacity="0.8"/>
          <circle cx="0" cy="-126" r="8" fill="#c9a84c" opacity="0.8"/>
          <circle cx="24" cy="-116" r="8" fill="#c9a84c" opacity="0.8"/>
          <circle cx="-14" cy="-92" r="8" fill="#c9a84c" opacity="0.8"/>
          <circle cx="14" cy="-92" r="8" fill="#c9a84c" opacity="0.8"/>
        </g>
        

  <line x1="92" y1="392" x2="658" y2="392" stroke="#ece2cb" stroke-width="4"/>
  <rect x="56" y="410" width="638" height="334" rx="24" fill="#ece2cb" opacity="0.72"/>
  <text x="375" y="553" text-anchor="middle" font-size="58" font-weight="600" fill="#241d12" opacity="0.9">View opponent&#x27;s hand</text>
<text x="375" y="617" text-anchor="middle" font-size="58" font-weight="600" fill="#241d12" opacity="0.9">(start of round).</text>

  <line x1="92" y1="760" x2="658" y2="760" stroke="#ece2cb" stroke-width="4"/>
  <text x="375" y="878" text-anchor="middle" font-size="79" font-weight="700" fill="#241d12">Argus Panoptes</text>
  <text x="375" y="974" text-anchor="middle" font-size="68" font-weight="700" fill="#c9a84c" letter-spacing="4">HERO</text>
</svg>
