<svg xmlns="http://www.w3.org/2000/svg" viewBox="0 0 750 1050" role="img" aria-labelledby="title desc">
  <title id="title">Circe</title>
  <desc id="desc">Concept art hero card for Circe with gold hero framing.</desc>
  <defs>
    <linearGradient id="bg-wormtongue" x1="0" x2="0" y1="0" y2="1">
      <stop offset="0%" stop-color="#f6f0e4"/>
      <stop offset="100%" stop-color="#ffffff"/>
    </linearGradient>
  </defs>
  <rect x="16" y="16" width="718" height="1018" rx="40" fill="url(#bg-wormtongue)" stroke="#c9a84c" stroke-width="16"/>
  <rect x="42" y="42" width="666" height="966" rx="28" fill="none" stroke="#8b6d21" stroke-width="5"/>

  <g transform="translate(112,112)">
    
    <g transform="translate(0,0) scale(0.62)">
      <path d="M0 -58 C18 -48 30 -28 30 -6 C30 22 10 42 0 58 C-10 42 -30 22 -30 -6 C-30 -28 -18 -48 0 -58 Z" fill="#c9a84c"/>
      <circle cx="0" cy="-6" r="12" fill="#241d12"/>
      <path d="M-48 -4 C-44 18 -32 34 -18 46" fill="none" stroke="#c9a84c" stroke-width="10" stroke-linecap="round"/>
      <path d="M48 -4 C44 18 32 34 18 46" fill="none" stroke="#c9a84c" stroke-width="10" stroke-linecap="round"/>
      <path d="M-54 6 C-48 18 -42 28 -32 34" fill="none" stroke="#c9a84c" stroke-width="8" stroke-linecap="round"/>
      <path d="M54 6 C48 18 42 28 32 34" fill="none" stroke="#c9a84c" stroke-width="8" stroke-linecap="round"/>
    </g>
    
  </g>

  <g transform="translate(375,220) scale(0.76)"><circle cx="0" cy="-46" r="66" fill="none" stroke="#c9a84c" stroke-width="10" opacity="0.16"/><path d="M-42 -46 H42" fill="none" stroke="#c9a84c" stroke-width="8" stroke-linecap="round" opacity="0.14"/></g>
  
    <g transform="translate(375,184) scale(0.7)">
      <path d="M0 -54 C14 -42 24 -20 24 0 C24 24 10 44 -10 56 C-4 34 -10 14 -30 -2 C-18 -2 -8 -6 0 -14 C8 -22 12 -34 10 -46 Z" fill="#c9a84c" opacity="0.18"/>
      <path d="M-34 20 H34" fill="none" stroke="#241d12" stroke-width="8" stroke-linecap="round" opacity="0.22"/>
    </g>
    
  <g transform="translate(375,320) scale(0.68)">
          <path d="M40 -98 C66 -74 80 -42 80 -2" fill="#c9a84c" opacity="0.22"/>
          <path d="M-28 6 C0 -10 26 -10 54 0" fill="none" stroke="#c9a84c" stroke-width="8" stroke-linecap="round" opacity="0.58"/>
          <path d="M-26 -44 H26" fill="none" stroke="#c9a84c" stroke-width="8" stroke-linecap="round" opacity="0.5"/>
        </g>
  
        <g transform="translate(375,248) scale(0.62)">
          <path d="M0 -132 C20 -126 32 -110 32 -88 C32 -66 18 -48 0 -38 C-18 -48 -32 -66 -32 -88 C-32 -110 -20 -126 0 -132 Z" fill="#c9a84c" opacity="0.34"/>
          <path d="M0 -88 L26 -24 L42 108 L-42 108 L-26 -24 Z" fill="#241d12"/>
          <path d="M44 -96 C66 -72 78 -42 76 -8 C58 -18 40 -22 22 -20" fill="#c9a84c" opacity="0.42"/>
          <path d="M-42 10 C-16 -2 8 -4 34 2" fill="none" stroke="#c9a84c" stroke-width="10" stroke-linecap="round"/>
        </g>
        

  <line x1="92" y1="392" x2="658" y2="392" stroke="#ece2cb" stroke-width="4"/>
  <rect x="56" y="410" width="638" height="334" rx="24" fill="#ece2cb" opacity="0.72"/>
  <text x="375" y="489" text-anchor="middle" font-size="58" font-weight="600" fill="#241d12" opacity="0.9">Name a dominion;</text>
<text x="375" y="553" text-anchor="middle" font-size="58" font-weight="600" fill="#241d12" opacity="0.9">defender cannot play</text>
<text x="375" y="617" text-anchor="middle" font-size="58" font-weight="600" fill="#241d12" opacity="0.9">that dominion this</text>
<text x="375" y="681" text-anchor="middle" font-size="58" font-weight="600" fill="#241d12" opacity="0.9">round.</text>

  <line x1="92" y1="760" x2="658" y2="760" stroke="#ece2cb" stroke-width="4"/>
  <text x="375" y="878" text-anchor="middle" font-size="116" font-weight="700" fill="#241d12">Circe</text>
  <text x="375" y="974" text-anchor="middle" font-size="68" font-weight="700" fill="#c9a84c" letter-spacing="4">HERO</text>
</svg>
