<svg xmlns="http://www.w3.org/2000/svg" viewBox="0 0 750 1050" role="img" aria-labelledby="title desc">
  <title id="title">Achilles</title>
  <desc id="desc">Concept art hero card for Achilles with gold hero framing.</desc>
  <defs>
    <linearGradient id="bg-legolas" x1="0" x2="0" y1="0" y2="1">
      <stop offset="0%" stop-color="#f6f0e4"/>
      <stop offset="100%" stop-color="#ffffff"/>
    </linearGradient>
  </defs>
  <rect x="16" y="16" width="718" height="1018" rx="40" fill="url(#bg-legolas)" stroke="#c9a84c" stroke-width="16"/>
  <rect x="42" y="42" width="666" height="966" rx="28" fill="none" stroke="#8b6d21" stroke-width="5"/>

  <g transform="translate(112,112)">
    
    <g transform="translate(0,0) scale(0.62)">
      <path d="M0 -58 C18 -48 30 -28 30 -6 C30 22 10 42 0 58 C-10 42 -30 22 -30 -6 C-30 -28 -18 -48 0 -58 Z" fill="#c9a84c"/>
      <circle cx="0" cy="-6" r="12" fill="#241d12"/>
      <path d="M-48 -4 C-44 18 -32 34 -18 46" fill="none" stroke="#c9a84c" stroke-width="10" stroke-linecap="round"/>
      <path d="M48 -4 C44 18 32 34 18 46" fill="none" stroke="#c9a84c" stroke-width="10" stroke-linecap="round"/>
      <path d="M-54 6 C-48 18 -42 28 -32 34" fill="none" stroke="#c9a84c" stroke-width="8" stroke-linecap="round"/>
      <path d="M54 6 C48 18 42 28 32 34" fill="none" stroke="#c9a84c" stroke-width="8" stroke-linecap="round"/>
    </g>
    
  </g>

  
    <g transform="translate(375,254) scale(1.42)">
      <path d="M0 -64 L46 -10 L18 56 L-18 56 L-46 -10 Z" fill="#c9a84c" opacity="0.14"/>
      <circle cx="0" cy="0" r="60" fill="none" stroke="#c9a84c" stroke-width="10" opacity="0.26"/>
    </g>
    
  
        <g transform="translate(375,400) scale(1.28)">
          <path d="M0 -132 L28 -102 L44 -8 L58 106 L-58 106 L-44 -8 L-28 -102 Z" fill="#241d12"/>
          <path d="M22 -92 L74 -126" fill="none" stroke="#c9a84c" stroke-width="12" stroke-linecap="round"/>
          <path d="M58 -118 L90 116" fill="none" stroke="#c9a84c" stroke-width="12" stroke-linecap="round"/>
          <path d="M-6 -118 L16 -136 L24 -118" fill="none" stroke="#c9a84c" stroke-width="10" stroke-linecap="round"/>
        </g>
        

  <line x1="118" y1="658" x2="632" y2="658" stroke="#ece2cb" stroke-width="4"/>
  <rect x="92" y="676" width="566" height="188" rx="22" fill="#ece2cb" opacity="0.72"/>
  <text x="375" y="758" text-anchor="middle" font-size="29" font-weight="600" fill="#241d12" opacity="0.9">Add one attack card regardless of</text>
<text x="375" y="792" text-anchor="middle" font-size="29" font-weight="600" fill="#241d12" opacity="0.9">rank (play with card).</text>

  <line x1="118" y1="892" x2="632" y2="892" stroke="#ece2cb" stroke-width="4"/>
  <text x="375" y="944" text-anchor="middle" font-size="42" font-weight="700" fill="#241d12">Achilles</text>
  <text x="375" y="980" text-anchor="middle" font-size="22" font-weight="700" fill="#c9a84c" letter-spacing="4">HERO</text>
</svg>
