<svg xmlns="http://www.w3.org/2000/svg" viewBox="0 0 256 256" role="img" aria-labelledby="title desc">
  <title id="title">Tidewake Dominion Placeholder Icon</title>
  <desc id="desc">A Tufts Blue trident-wave symbol for the Tidewake Dominion.</desc>
  <rect width="256" height="256" rx="36" fill="#eff6fb"/>
  <path d="M128 52v114" stroke="#3e8ede" stroke-linecap="round" stroke-width="12"/>
  <path d="M128 52 96 94" fill="none" stroke="#3e8ede" stroke-linecap="round" stroke-width="12"/>
  <path d="M128 52 160 94" fill="none" stroke="#3e8ede" stroke-linecap="round" stroke-width="12"/>
  <path d="M84 154c12-14 26-18 42-12 15 5 28 3 46-12 0 30-22 52-58 52-22 0-38-10-50-28 6 2 13 2 20 0Z" fill="#3e8ede"/>
  <path d="M70 170c18 8 35 6 50-4 12-8 24-11 42-8" fill="none" stroke="#86c8f1" stroke-linecap="round" stroke-width="10"/>
</svg>
