<svg xmlns="http://www.w3.org/2000/svg" viewBox="0 0 750 1050" role="img" aria-labelledby="title desc">
  <title id="title">6 of Ember Throne</title>
  <desc id="desc">Concept art card for 6 of Ember Throne using the Ember Throne dominion frame.</desc>
  <defs>
    <linearGradient id="bg-ember_throne_6" x1="0" x2="0" y1="0" y2="1">
      <stop offset="0%" stop-color="#f5ece5"/>
      <stop offset="100%" stop-color="#ffffff"/>
    </linearGradient>
  </defs>
  <rect x="16" y="16" width="718" height="1018" rx="40" fill="url(#bg-ember_throne_6)" stroke="#6D1F33" stroke-width="16"/>
  <rect x="42" y="42" width="666" height="966" rx="28" fill="none" stroke="#6D1F33" stroke-width="5"/>

  <g transform="translate(94,150)">
    <text x="0" y="0" font-size="108" font-weight="700" fill="#6D1F33">6</text>
    <g transform="translate(24,74)">
        <g transform="translate(0,0) scale(0.48)">
          <path d="M-44 -18 L-66 -44 L-52 -8 L-20 -22 Z" fill="#6D1F33"/>
          <path d="M44 -18 L66 -44 L52 -8 L20 -22 Z" fill="#6D1F33"/>
          <path d="M0 -72 C24 -36 38 -10 38 18 C38 48 18 74 0 74 C-18 74 -38 48 -38 18 C-38 -2 -30 -20 -14 -38 C-16 -18 -12 0 0 16 C8 0 8 -22 0 -72 Z" fill="#6D1F33"/>
          <path d="M0 -18 C10 -6 16 8 16 20 C16 36 8 48 0 48 C-8 48 -16 36 -16 20 C-16 10 -12 2 -4 -8 C-4 2 -2 8 0 12 C4 8 4 -2 0 -18 Z" fill="#d88852"/>
        </g>
        </g>
  </g>
  
        <g opacity="0.94">
          <path d="M184 560 L274 414 L316 604 Z" fill="#d69a78" opacity="0.22"/>
          <path d="M566 560 L476 414 L434 604 Z" fill="#d69a78" opacity="0.22"/>
          <path d="M222 344 L304 278 L326 466 Z" fill="#ead4d8" opacity="0.28"/>
          <path d="M528 344 L446 278 L424 466 Z" fill="#ead4d8" opacity="0.28"/>
          <path d="M338 244 L375 154 L412 244" fill="#d69a78" opacity="0.5"/>
          <path d="M375 182 C404 220 420 250 420 282 C420 332 396 364 375 364 C354 364 330 332 330 282 C330 258 340 234 356 212 C354 236 362 256 375 272 C386 254 388 222 375 182 Z" fill="#ead4d8" opacity="0.32"/>
        </g>
        
  
        <g transform="translate(375,450) scale(1.34)">
          <path d="M0 -126 L26 -86 L44 10 L58 84 L-58 84 L-44 10 L-26 -86 Z" fill="#31181f"/>
          <path d="M0 -136 L22 -122 L16 -104 L0 -112 L-16 -104 L-22 -122 Z" fill="#6D1F33" opacity="0.7"/>
          <rect x="-6" y="-82" width="12" height="126" rx="4" fill="#6D1F33" opacity="0.85"/>
          <path d="M-58 84 L0 46 L58 84" fill="#6D1F33" opacity="0.18"/>
        </g>
        

  <line x1="118" y1="856" x2="632" y2="856" stroke="#ead4d8" stroke-width="4"/>
  <text x="375" y="904" text-anchor="middle" font-size="42" font-weight="700" fill="#31181f">Ember Initiate</text>
  <text x="375" y="952" text-anchor="middle" font-size="26" font-weight="700" fill="#6D1F33" letter-spacing="3">EMBER THRONE</text>
</svg>
