<svg xmlns="http://www.w3.org/2000/svg" viewBox="0 0 750 1050" role="img" aria-labelledby="title desc">
  <title id="title">7 of Tidewake Dominion</title>
  <desc id="desc">Concept art card for 7 of Tidewake Dominion using the Tidewake Dominion dominion frame.</desc>
  <defs>
    <linearGradient id="bg-tidewake_dominion_7" x1="0" x2="0" y1="0" y2="1">
      <stop offset="0%" stop-color="#edf5fb"/>
      <stop offset="100%" stop-color="#ffffff"/>
    </linearGradient>
  </defs>
  <rect x="16" y="16" width="718" height="1018" rx="40" fill="url(#bg-tidewake_dominion_7)" stroke="#3E8EDE" stroke-width="16"/>
  <rect x="42" y="42" width="666" height="966" rx="28" fill="none" stroke="#3E8EDE" stroke-width="5"/>

  <g transform="translate(94,150)">
    <text x="0" y="0" font-size="108" font-weight="700" fill="#3E8EDE">7</text>
    <g transform="translate(24,74)">
        <g transform="translate(0,0) scale(0.48)">
          <path d="M0 -64 V52" fill="none" stroke="#3E8EDE" stroke-width="10" stroke-linecap="round"/>
          <path d="M0 -64 L-28 -26" fill="none" stroke="#3E8EDE" stroke-width="10" stroke-linecap="round"/>
          <path d="M0 -64 L28 -26" fill="none" stroke="#3E8EDE" stroke-width="10" stroke-linecap="round"/>
          <path d="M-44 30 C-24 10, -8 6, 12 14 C28 20, 42 16, 56 0 C56 42, 24 66, -10 66 C-34 66, -56 52, -66 30 C-56 34, -50 34, -44 30 Z" fill="#3E8EDE"/>
          <path d="M-54 46 C-20 60, 8 50, 34 36 C48 28, 60 26, 72 28" fill="none" stroke="#1e3554" stroke-width="8" stroke-linecap="round"/>
        </g>
        </g>
  </g>
  
        <g opacity="0.92">
          <path d="M214 564 C266 486 326 438 392 406 C344 462 322 530 338 608" fill="none" stroke="#90c8ef" stroke-width="18" stroke-linecap="round" opacity="0.4"/>
          <path d="M536 564 C486 486 426 438 360 406 C408 462 430 530 414 608" fill="none" stroke="#90c8ef" stroke-width="18" stroke-linecap="round" opacity="0.4"/>
          <path d="M240 332 C286 294 330 284 375 302 C420 284 464 294 510 332" fill="none" stroke="#dbeaf9" stroke-width="16" stroke-linecap="round" opacity="0.52"/>
          <path d="M246 612 C306 582 362 574 430 592 C470 602 504 602 540 592" fill="none" stroke="#dbeaf9" stroke-width="14" stroke-linecap="round" opacity="0.48"/>
          <circle cx="294" cy="254" r="10" fill="#90c8ef" opacity="0.34"/>
          <circle cx="454" cy="226" r="8" fill="#90c8ef" opacity="0.28"/>
        </g>
        
  <g transform="translate(375,432) scale(1.0)"><path d="M-124 108 C-116 66 -108 34 -88 6 M124 108 C116 66 108 34 88 6" fill="none" stroke="#1e3554" stroke-width="12" stroke-linecap="round" opacity="0.26"/><path d="M-120 74 C-70 42 -18 36 44 52 C80 62 110 60 130 50" fill="none" stroke="#3E8EDE" stroke-width="9" stroke-linecap="round" opacity="0.8"/></g>
  <g transform="translate(375,432) scale(1.0)"><path d="M44 -34 C76 -22 96 0 106 32" fill="none" stroke="#3E8EDE" stroke-width="8" stroke-linecap="round" opacity="0.58"/><path d="M-98 68 C-44 32 12 28 76 42" fill="none" stroke="#3E8EDE" stroke-width="8" stroke-linecap="round" opacity="0.48"/></g>
  
        <g transform="translate(375,450) scale(1.34)">
          <path d="M-12 -118 C28 -118 42 -72 34 -38 C26 -4 28 40 58 90 L-30 90 C-42 48 -44 16 -36 -22 C-30 -52 -32 -92 -12 -118 Z" fill="#1e3554"/>
          <path d="M22 -102 L22 40" fill="none" stroke="#3E8EDE" stroke-width="12" stroke-linecap="round"/>
          <path d="M22 -102 L-8 -62" fill="none" stroke="#3E8EDE" stroke-width="10" stroke-linecap="round"/>
          <path d="M22 -102 L52 -62" fill="none" stroke="#3E8EDE" stroke-width="10" stroke-linecap="round"/>
          <path d="M-48 40 C-18 22 12 22 44 40" fill="none" stroke="#3E8EDE" stroke-width="10" stroke-linecap="round" opacity="0.45"/>
        </g>
        

  <line x1="96" y1="742" x2="654" y2="742" stroke="#dbeaf9" stroke-width="4"/>
  <text x="375" y="866" text-anchor="middle" font-size="99" font-weight="700" fill="#1e3554">Current Scout</text>
  <text x="375" y="976" text-anchor="middle" font-size="54" font-weight="700" fill="#3E8EDE" letter-spacing="2">TIDEWAKE DOMINION</text>
</svg>
