<svg xmlns="http://www.w3.org/2000/svg" viewBox="0 0 750 1050" role="img" aria-labelledby="title desc">
  <title id="title">King of Verdant Court</title>
  <desc id="desc">Concept art card for King of Verdant Court using the Verdant Court dominion frame.</desc>
  <defs>
    <linearGradient id="bg-verdant_court_king" x1="0" x2="0" y1="0" y2="1">
      <stop offset="0%" stop-color="#f3efe4"/>
      <stop offset="100%" stop-color="#ffffff"/>
    </linearGradient>
  </defs>
  <rect x="16" y="16" width="718" height="1018" rx="40" fill="url(#bg-verdant_court_king)" stroke="#9CAF88" stroke-width="16"/>
  <rect x="42" y="42" width="666" height="966" rx="28" fill="none" stroke="#9CAF88" stroke-width="5"/>

  <g transform="translate(94,150)">
    <text x="0" y="0" font-size="108" font-weight="700" fill="#9CAF88">K</text>
    <g transform="translate(24,74)">
        <g transform="translate(0,0) scale(0.48)">
          <path d="M-54 16 C-34 -24, -12 -44, 0 -44 C12 -44, 34 -24, 54 16" fill="none" stroke="#9CAF88" stroke-width="10" stroke-linecap="round"/>
          <ellipse cx="-30" cy="-14" rx="12" ry="22" fill="#9CAF88" transform="rotate(-26 -30 -14)"/>
          <ellipse cx="0" cy="-34" rx="12" ry="22" fill="#9CAF88"/>
          <ellipse cx="30" cy="-14" rx="12" ry="22" fill="#9CAF88" transform="rotate(26 30 -14)"/>
          <path d="M0 -18 V34" fill="none" stroke="#2d3a2e" stroke-width="8" stroke-linecap="round"/>
        </g>
        </g>
  </g>
  
        <g opacity="0.9">
          <circle cx="375" cy="236" r="102" fill="#cdd8ba" opacity="0.46"/>
          <path d="M194 568 C234 488 286 434 352 392 C294 452 258 520 244 612" fill="none" stroke="#cdd8ba" stroke-width="18" stroke-linecap="round" opacity="0.42"/>
          <path d="M556 568 C516 488 464 434 398 392 C456 452 492 520 506 612" fill="none" stroke="#cdd8ba" stroke-width="18" stroke-linecap="round" opacity="0.42"/>
          <path d="M292 338 L292 592 M458 338 L458 592" fill="none" stroke="#e4ead7" stroke-width="16" stroke-linecap="round" opacity="0.52"/>
          <path d="M292 338 Q375 296 458 338" fill="none" stroke="#e4ead7" stroke-width="16" stroke-linecap="round" opacity="0.52"/>
        </g>
        
  
        <g transform="translate(375,450) scale(1.34)">
          <path d="M0 -138 L28 -102 L46 10 L62 104 L-62 104 L-46 10 L-28 -102 Z" fill="#2d3a2e"/>
          <path d="M-32 -116 L-10 -146 L0 -122 L10 -146 L32 -116" fill="#9CAF88" opacity="0.82"/>
          <path d="M-70 88 L-28 54 L28 54 L70 88" fill="#9CAF88" opacity="0.2"/>
          <rect x="-8" y="-86" width="16" height="146" rx="5" fill="#9CAF88" opacity="0.74"/>
        </g>
        

  <line x1="118" y1="856" x2="632" y2="856" stroke="#e4ead7" stroke-width="4"/>
  <text x="375" y="904" text-anchor="middle" font-size="42" font-weight="700" fill="#2d3a2e">Thorn Sovereign</text>
  <text x="375" y="952" text-anchor="middle" font-size="26" font-weight="700" fill="#9CAF88" letter-spacing="3">VERDANT COURT</text>
</svg>
