<svg xmlns="http://www.w3.org/2000/svg" viewBox="0 0 750 1050" role="img" aria-labelledby="title desc">
  <title id="title">6 of Verdant Court</title>
  <desc id="desc">Concept art card for 6 of Verdant Court using the Verdant Court dominion frame.</desc>
  <defs>
    <linearGradient id="bg-verdant_court_6" x1="0" x2="0" y1="0" y2="1">
      <stop offset="0%" stop-color="#f3efe4"/>
      <stop offset="100%" stop-color="#ffffff"/>
    </linearGradient>
  </defs>
  <rect x="16" y="16" width="718" height="1018" rx="40" fill="url(#bg-verdant_court_6)" stroke="#9CAF88" stroke-width="16"/>
  <rect x="42" y="42" width="666" height="966" rx="28" fill="none" stroke="#9CAF88" stroke-width="5"/>

  <g transform="translate(94,150)">
    <text x="0" y="0" font-size="108" font-weight="700" fill="#9CAF88">6</text>
    <g transform="translate(24,74)">
        <g transform="translate(0,0) scale(0.48)">
          <path d="M-54 16 C-34 -24, -12 -44, 0 -44 C12 -44, 34 -24, 54 16" fill="none" stroke="#9CAF88" stroke-width="10" stroke-linecap="round"/>
          <ellipse cx="-30" cy="-14" rx="12" ry="22" fill="#9CAF88" transform="rotate(-26 -30 -14)"/>
          <ellipse cx="0" cy="-34" rx="12" ry="22" fill="#9CAF88"/>
          <ellipse cx="30" cy="-14" rx="12" ry="22" fill="#9CAF88" transform="rotate(26 30 -14)"/>
          <path d="M0 -18 V34" fill="none" stroke="#2d3a2e" stroke-width="8" stroke-linecap="round"/>
        </g>
        </g>
  </g>
  
        <g opacity="0.9">
          <circle cx="375" cy="236" r="102" fill="#cdd8ba" opacity="0.46"/>
          <path d="M194 568 C234 488 286 434 352 392 C294 452 258 520 244 612" fill="none" stroke="#cdd8ba" stroke-width="18" stroke-linecap="round" opacity="0.42"/>
          <path d="M556 568 C516 488 464 434 398 392 C456 452 492 520 506 612" fill="none" stroke="#cdd8ba" stroke-width="18" stroke-linecap="round" opacity="0.42"/>
          <path d="M292 338 L292 592 M458 338 L458 592" fill="none" stroke="#e4ead7" stroke-width="16" stroke-linecap="round" opacity="0.52"/>
          <path d="M292 338 Q375 296 458 338" fill="none" stroke="#e4ead7" stroke-width="16" stroke-linecap="round" opacity="0.52"/>
        </g>
        
  <g transform="translate(375,432) scale(1.0)"><path d="M12 -154 L12 112" fill="none" stroke="#9CAF88" stroke-width="10" stroke-linecap="round"/><path d="M-132 102 L-118 -84 M132 102 L118 -84" fill="none" stroke="#2d3a2e" stroke-width="14" stroke-linecap="round" opacity="0.28"/><path d="M78 -124 C98 -124 114 -108 114 -88 C114 -64 92 -46 70 -52 C82 -60 90 -72 90 -88 C90 -102 84 -114 72 -122 C74 -123 76 -124 78 -124 Z" fill="#9CAF88" opacity="0.62"/></g>
  <g transform="translate(375,432) scale(1.0)"><path d="M28 -150 L28 110" fill="none" stroke="#9CAF88" stroke-width="10" stroke-linecap="round"/><path d="M-108 100 L-92 -58 M108 100 L92 -58" fill="none" stroke="#2d3a2e" stroke-width="12" stroke-linecap="round" opacity="0.22"/></g>
  
        <g transform="translate(375,450) scale(1.34)">
          <path d="M0 -128 C18 -122 28 -106 28 -88 C28 -68 16 -54 0 -48 C-16 -54 -28 -68 -28 -88 C-28 -106 -18 -122 0 -128 Z" fill="#9CAF88" opacity="0.45"/>
          <path d="M0 -84 L18 -36 L42 92 L-42 92 L-18 -36 Z" fill="#2d3a2e"/>
          <rect x="-5" y="-118" width="10" height="160" rx="4" fill="#2d3a2e"/>
          <path d="M-28 -118 C-40 -110 -46 -94 -44 -80" fill="none" stroke="#2d3a2e" stroke-width="8" stroke-linecap="round"/>
          <path d="M28 -118 C40 -110 46 -94 44 -80" fill="none" stroke="#2d3a2e" stroke-width="8" stroke-linecap="round"/>
        </g>
        

  <line x1="96" y1="742" x2="654" y2="742" stroke="#e4ead7" stroke-width="4"/>
  <text x="375" y="866" text-anchor="middle" font-size="116" font-weight="700" fill="#2d3a2e">Initiate</text>
  <text x="375" y="976" text-anchor="middle" font-size="68" font-weight="700" fill="#9CAF88" letter-spacing="2">VERDANT COURT</text>
</svg>
